<?xml version="1.0" encoding="utf-8" standalone="no"?>
<!DOCTYPE svg PUBLIC "-//W3C//DTD SVG 1.1//EN"
  "http://www.w3.org/Graphics/SVG/1.1/DTD/svg11.dtd">
<svg xmlns:xlink="http://www.w3.org/1999/xlink" width="1440pt" height="360pt" viewBox="0 0 1440 360" xmlns="http://www.w3.org/2000/svg" version="1.1">
 <metadata>
  <rdf:RDF xmlns:dc="http://purl.org/dc/elements/1.1/" xmlns:cc="http://creativecommons.org/ns#" xmlns:rdf="http://www.w3.org/1999/02/22-rdf-syntax-ns#">
   <cc:Work>
    <dc:type rdf:resource="http://purl.org/dc/dcmitype/StillImage"/>
    <dc:date>2025-01-07T13:13:12.866973</dc:date>
    <dc:format>image/svg+xml</dc:format>
    <dc:creator>
     <cc:Agent>
      <dc:title>Matplotlib v3.8.0, https://matplotlib.org/</dc:title>
     </cc:Agent>
    </dc:creator>
   </cc:Work>
  </rdf:RDF>
 </metadata>
 <defs>
  <style type="text/css">*{stroke-linejoin: round; stroke-linecap: butt}</style>
 </defs>
 <g id="figure_1">
  <g id="patch_1">
   <path d="M 0 360 
L 1440 360 
L 1440 0 
L 0 0 
z
" style="fill: #ffffff"/>
  </g>
  <g id="axes_1">
   <g id="patch_2">
    <path d="M 66.35 305.670864 
L 1429.2 305.670864 
L 1429.2 27.6 
L 66.35 27.6 
z
" style="fill: #e5e5e5"/>
   </g>
   <g id="matplotlib.axis_1">
    <g id="xtick_1">
     <g id="line2d_1">
      <path d="M 128.297727 305.670864 
L 128.297727 27.6 
" clip-path="url(#pbf68ad61cb)" style="fill: none; stroke: #ffffff; stroke-width: 0.8; stroke-linecap: square"/>
     </g>
     <g id="line2d_2">
      <defs>
       <path id="m6026c76de6" d="M 0 0 
L 0 3.5 
" style="stroke: #555555; stroke-width: 0.8"/>
      </defs>
      <g>
       <use xlink:href="#m6026c76de6" x="128.297727" y="305.670864" style="fill: #555555; stroke: #555555; stroke-width: 0.8"/>
      </g>
     </g>
     <g id="text_1">
      <!-- 2016-01 -->
      <g style="fill: #555555" transform="translate(115.476445 347.58868) rotate(-45) scale(0.1 -0.1)">
       <defs>
        <path id="DejaVuSans-32" d="M 1228 531 
L 3431 531 
L 3431 0 
L 469 0 
L 469 531 
Q 828 903 1448 1529 
Q 2069 2156 2228 2338 
Q 2531 2678 2651 2914 
Q 2772 3150 2772 3378 
Q 2772 3750 2511 3984 
Q 2250 4219 1831 4219 
Q 1534 4219 1204 4116 
Q 875 4013 500 3803 
L 500 4441 
Q 881 4594 1212 4672 
Q 1544 4750 1819 4750 
Q 2544 4750 2975 4387 
Q 3406 4025 3406 3419 
Q 3406 3131 3298 2873 
Q 3191 2616 2906 2266 
Q 2828 2175 2409 1742 
Q 1991 1309 1228 531 
z
" transform="scale(0.015625)"/>
        <path id="DejaVuSans-30" d="M 2034 4250 
Q 1547 4250 1301 3770 
Q 1056 3291 1056 2328 
Q 1056 1369 1301 889 
Q 1547 409 2034 409 
Q 2525 409 2770 889 
Q 3016 1369 3016 2328 
Q 3016 3291 2770 3770 
Q 2525 4250 2034 4250 
z
M 2034 4750 
Q 2819 4750 3233 4129 
Q 3647 3509 3647 2328 
Q 3647 1150 3233 529 
Q 2819 -91 2034 -91 
Q 1250 -91 836 529 
Q 422 1150 422 2328 
Q 422 3509 836 4129 
Q 1250 4750 2034 4750 
z
" transform="scale(0.015625)"/>
        <path id="DejaVuSans-31" d="M 794 531 
L 1825 531 
L 1825 4091 
L 703 3866 
L 703 4441 
L 1819 4666 
L 2450 4666 
L 2450 531 
L 3481 531 
L 3481 0 
L 794 0 
L 794 531 
z
" transform="scale(0.015625)"/>
        <path id="DejaVuSans-36" d="M 2113 2584 
Q 1688 2584 1439 2293 
Q 1191 2003 1191 1497 
Q 1191 994 1439 701 
Q 1688 409 2113 409 
Q 2538 409 2786 701 
Q 3034 994 3034 1497 
Q 3034 2003 2786 2293 
Q 2538 2584 2113 2584 
z
M 3366 4563 
L 3366 3988 
Q 3128 4100 2886 4159 
Q 2644 4219 2406 4219 
Q 1781 4219 1451 3797 
Q 1122 3375 1075 2522 
Q 1259 2794 1537 2939 
Q 1816 3084 2150 3084 
Q 2853 3084 3261 2657 
Q 3669 2231 3669 1497 
Q 3669 778 3244 343 
Q 2819 -91 2113 -91 
Q 1303 -91 875 529 
Q 447 1150 447 2328 
Q 447 3434 972 4092 
Q 1497 4750 2381 4750 
Q 2619 4750 2861 4703 
Q 3103 4656 3366 4563 
z
" transform="scale(0.015625)"/>
        <path id="DejaVuSans-2d" d="M 313 2009 
L 1997 2009 
L 1997 1497 
L 313 1497 
L 313 2009 
z
" transform="scale(0.015625)"/>
       </defs>
       <use xlink:href="#DejaVuSans-32"/>
       <use xlink:href="#DejaVuSans-30" x="63.623047"/>
       <use xlink:href="#DejaVuSans-31" x="127.246094"/>
       <use xlink:href="#DejaVuSans-36" x="190.869141"/>
       <use xlink:href="#DejaVuSans-2d" x="254.492188"/>
       <use xlink:href="#DejaVuSans-30" x="290.576172"/>
       <use xlink:href="#DejaVuSans-31" x="354.199219"/>
      </g>
     </g>
    </g>
    <g id="xtick_2">
     <g id="line2d_3">
      <path d="M 285.149116 305.670864 
L 285.149116 27.6 
" clip-path="url(#pbf68ad61cb)" style="fill: none; stroke: #ffffff; stroke-width: 0.8; stroke-linecap: square"/>
     </g>
     <g id="line2d_4">
      <g>
       <use xlink:href="#m6026c76de6" x="285.149116" y="305.670864" style="fill: #555555; stroke: #555555; stroke-width: 0.8"/>
      </g>
     </g>
     <g id="text_2">
      <!-- 2017-01 -->
      <g style="fill: #555555" transform="translate(272.327833 347.58868) rotate(-45) scale(0.1 -0.1)">
       <defs>
        <path id="DejaVuSans-37" d="M 525 4666 
L 3525 4666 
L 3525 4397 
L 1831 0 
L 1172 0 
L 2766 4134 
L 525 4134 
L 525 4666 
z
" transform="scale(0.015625)"/>
       </defs>
       <use xlink:href="#DejaVuSans-32"/>
       <use xlink:href="#DejaVuSans-30" x="63.623047"/>
       <use xlink:href="#DejaVuSans-31" x="127.246094"/>
       <use xlink:href="#DejaVuSans-37" x="190.869141"/>
       <use xlink:href="#DejaVuSans-2d" x="254.492188"/>
       <use xlink:href="#DejaVuSans-30" x="290.576172"/>
       <use xlink:href="#DejaVuSans-31" x="354.199219"/>
      </g>
     </g>
    </g>
    <g id="xtick_3">
     <g id="line2d_5">
      <path d="M 441.571948 305.670864 
L 441.571948 27.6 
" clip-path="url(#pbf68ad61cb)" style="fill: none; stroke: #ffffff; stroke-width: 0.8; stroke-linecap: square"/>
     </g>
     <g id="line2d_6">
      <g>
       <use xlink:href="#m6026c76de6" x="441.571948" y="305.670864" style="fill: #555555; stroke: #555555; stroke-width: 0.8"/>
      </g>
     </g>
     <g id="text_3">
      <!-- 2018-01 -->
      <g style="fill: #555555" transform="translate(428.750666 347.58868) rotate(-45) scale(0.1 -0.1)">
       <defs>
        <path id="DejaVuSans-38" d="M 2034 2216 
Q 1584 2216 1326 1975 
Q 1069 1734 1069 1313 
Q 1069 891 1326 650 
Q 1584 409 2034 409 
Q 2484 409 2743 651 
Q 3003 894 3003 1313 
Q 3003 1734 2745 1975 
Q 2488 2216 2034 2216 
z
M 1403 2484 
Q 997 2584 770 2862 
Q 544 3141 544 3541 
Q 544 4100 942 4425 
Q 1341 4750 2034 4750 
Q 2731 4750 3128 4425 
Q 3525 4100 3525 3541 
Q 3525 3141 3298 2862 
Q 3072 2584 2669 2484 
Q 3125 2378 3379 2068 
Q 3634 1759 3634 1313 
Q 3634 634 3220 271 
Q 2806 -91 2034 -91 
Q 1263 -91 848 271 
Q 434 634 434 1313 
Q 434 1759 690 2068 
Q 947 2378 1403 2484 
z
M 1172 3481 
Q 1172 3119 1398 2916 
Q 1625 2713 2034 2713 
Q 2441 2713 2670 2916 
Q 2900 3119 2900 3481 
Q 2900 3844 2670 4047 
Q 2441 4250 2034 4250 
Q 1625 4250 1398 4047 
Q 1172 3844 1172 3481 
z
" transform="scale(0.015625)"/>
       </defs>
       <use xlink:href="#DejaVuSans-32"/>
       <use xlink:href="#DejaVuSans-30" x="63.623047"/>
       <use xlink:href="#DejaVuSans-31" x="127.246094"/>
       <use xlink:href="#DejaVuSans-38" x="190.869141"/>
       <use xlink:href="#DejaVuSans-2d" x="254.492188"/>
       <use xlink:href="#DejaVuSans-30" x="290.576172"/>
       <use xlink:href="#DejaVuSans-31" x="354.199219"/>
      </g>
     </g>
    </g>
    <g id="xtick_4">
     <g id="line2d_7">
      <path d="M 597.994781 305.670864 
L 597.994781 27.6 
" clip-path="url(#pbf68ad61cb)" style="fill: none; stroke: #ffffff; stroke-width: 0.8; stroke-linecap: square"/>
     </g>
     <g id="line2d_8">
      <g>
       <use xlink:href="#m6026c76de6" x="597.994781" y="305.670864" style="fill: #555555; stroke: #555555; stroke-width: 0.8"/>
      </g>
     </g>
     <g id="text_4">
      <!-- 2019-01 -->
      <g style="fill: #555555" transform="translate(585.173499 347.58868) rotate(-45) scale(0.1 -0.1)">
       <defs>
        <path id="DejaVuSans-39" d="M 703 97 
L 703 672 
Q 941 559 1184 500 
Q 1428 441 1663 441 
Q 2288 441 2617 861 
Q 2947 1281 2994 2138 
Q 2813 1869 2534 1725 
Q 2256 1581 1919 1581 
Q 1219 1581 811 2004 
Q 403 2428 403 3163 
Q 403 3881 828 4315 
Q 1253 4750 1959 4750 
Q 2769 4750 3195 4129 
Q 3622 3509 3622 2328 
Q 3622 1225 3098 567 
Q 2575 -91 1691 -91 
Q 1453 -91 1209 -44 
Q 966 3 703 97 
z
M 1959 2075 
Q 2384 2075 2632 2365 
Q 2881 2656 2881 3163 
Q 2881 3666 2632 3958 
Q 2384 4250 1959 4250 
Q 1534 4250 1286 3958 
Q 1038 3666 1038 3163 
Q 1038 2656 1286 2365 
Q 1534 2075 1959 2075 
z
" transform="scale(0.015625)"/>
       </defs>
       <use xlink:href="#DejaVuSans-32"/>
       <use xlink:href="#DejaVuSans-30" x="63.623047"/>
       <use xlink:href="#DejaVuSans-31" x="127.246094"/>
       <use xlink:href="#DejaVuSans-39" x="190.869141"/>
       <use xlink:href="#DejaVuSans-2d" x="254.492188"/>
       <use xlink:href="#DejaVuSans-30" x="290.576172"/>
       <use xlink:href="#DejaVuSans-31" x="354.199219"/>
      </g>
     </g>
    </g>
    <g id="xtick_5">
     <g id="line2d_9">
      <path d="M 754.417613 305.670864 
L 754.417613 27.6 
" clip-path="url(#pbf68ad61cb)" style="fill: none; stroke: #ffffff; stroke-width: 0.8; stroke-linecap: square"/>
     </g>
     <g id="line2d_10">
      <g>
       <use xlink:href="#m6026c76de6" x="754.417613" y="305.670864" style="fill: #555555; stroke: #555555; stroke-width: 0.8"/>
      </g>
     </g>
     <g id="text_5">
      <!-- 2020-01 -->
      <g style="fill: #555555" transform="translate(741.596331 347.58868) rotate(-45) scale(0.1 -0.1)">
       <use xlink:href="#DejaVuSans-32"/>
       <use xlink:href="#DejaVuSans-30" x="63.623047"/>
       <use xlink:href="#DejaVuSans-32" x="127.246094"/>
       <use xlink:href="#DejaVuSans-30" x="190.869141"/>
       <use xlink:href="#DejaVuSans-2d" x="254.492188"/>
       <use xlink:href="#DejaVuSans-30" x="290.576172"/>
       <use xlink:href="#DejaVuSans-31" x="354.199219"/>
      </g>
     </g>
    </g>
    <g id="xtick_6">
     <g id="line2d_11">
      <path d="M 911.269002 305.670864 
L 911.269002 27.6 
" clip-path="url(#pbf68ad61cb)" style="fill: none; stroke: #ffffff; stroke-width: 0.8; stroke-linecap: square"/>
     </g>
     <g id="line2d_12">
      <g>
       <use xlink:href="#m6026c76de6" x="911.269002" y="305.670864" style="fill: #555555; stroke: #555555; stroke-width: 0.8"/>
      </g>
     </g>
     <g id="text_6">
      <!-- 2021-01 -->
      <g style="fill: #555555" transform="translate(898.44772 347.58868) rotate(-45) scale(0.1 -0.1)">
       <use xlink:href="#DejaVuSans-32"/>
       <use xlink:href="#DejaVuSans-30" x="63.623047"/>
       <use xlink:href="#DejaVuSans-32" x="127.246094"/>
       <use xlink:href="#DejaVuSans-31" x="190.869141"/>
       <use xlink:href="#DejaVuSans-2d" x="254.492188"/>
       <use xlink:href="#DejaVuSans-30" x="290.576172"/>
       <use xlink:href="#DejaVuSans-31" x="354.199219"/>
      </g>
     </g>
    </g>
    <g id="xtick_7">
     <g id="line2d_13">
      <path d="M 1067.691834 305.670864 
L 1067.691834 27.6 
" clip-path="url(#pbf68ad61cb)" style="fill: none; stroke: #ffffff; stroke-width: 0.8; stroke-linecap: square"/>
     </g>
     <g id="line2d_14">
      <g>
       <use xlink:href="#m6026c76de6" x="1067.691834" y="305.670864" style="fill: #555555; stroke: #555555; stroke-width: 0.8"/>
      </g>
     </g>
     <g id="text_7">
      <!-- 2022-01 -->
      <g style="fill: #555555" transform="translate(1054.870552 347.58868) rotate(-45) scale(0.1 -0.1)">
       <use xlink:href="#DejaVuSans-32"/>
       <use xlink:href="#DejaVuSans-30" x="63.623047"/>
       <use xlink:href="#DejaVuSans-32" x="127.246094"/>
       <use xlink:href="#DejaVuSans-32" x="190.869141"/>
       <use xlink:href="#DejaVuSans-2d" x="254.492188"/>
       <use xlink:href="#DejaVuSans-30" x="290.576172"/>
       <use xlink:href="#DejaVuSans-31" x="354.199219"/>
      </g>
     </g>
    </g>
    <g id="xtick_8">
     <g id="line2d_15">
      <path d="M 1224.114667 305.670864 
L 1224.114667 27.6 
" clip-path="url(#pbf68ad61cb)" style="fill: none; stroke: #ffffff; stroke-width: 0.8; stroke-linecap: square"/>
     </g>
     <g id="line2d_16">
      <g>
       <use xlink:href="#m6026c76de6" x="1224.114667" y="305.670864" style="fill: #555555; stroke: #555555; stroke-width: 0.8"/>
      </g>
     </g>
     <g id="text_8">
      <!-- 2023-01 -->
      <g style="fill: #555555" transform="translate(1211.293385 347.58868) rotate(-45) scale(0.1 -0.1)">
       <defs>
        <path id="DejaVuSans-33" d="M 2597 2516 
Q 3050 2419 3304 2112 
Q 3559 1806 3559 1356 
Q 3559 666 3084 287 
Q 2609 -91 1734 -91 
Q 1441 -91 1130 -33 
Q 819 25 488 141 
L 488 750 
Q 750 597 1062 519 
Q 1375 441 1716 441 
Q 2309 441 2620 675 
Q 2931 909 2931 1356 
Q 2931 1769 2642 2001 
Q 2353 2234 1838 2234 
L 1294 2234 
L 1294 2753 
L 1863 2753 
Q 2328 2753 2575 2939 
Q 2822 3125 2822 3475 
Q 2822 3834 2567 4026 
Q 2313 4219 1838 4219 
Q 1578 4219 1281 4162 
Q 984 4106 628 3988 
L 628 4550 
Q 988 4650 1302 4700 
Q 1616 4750 1894 4750 
Q 2613 4750 3031 4423 
Q 3450 4097 3450 3541 
Q 3450 3153 3228 2886 
Q 3006 2619 2597 2516 
z
" transform="scale(0.015625)"/>
       </defs>
       <use xlink:href="#DejaVuSans-32"/>
       <use xlink:href="#DejaVuSans-30" x="63.623047"/>
       <use xlink:href="#DejaVuSans-32" x="127.246094"/>
       <use xlink:href="#DejaVuSans-33" x="190.869141"/>
       <use xlink:href="#DejaVuSans-2d" x="254.492188"/>
       <use xlink:href="#DejaVuSans-30" x="290.576172"/>
       <use xlink:href="#DejaVuSans-31" x="354.199219"/>
      </g>
     </g>
    </g>
    <g id="xtick_9">
     <g id="line2d_17">
      <path d="M 1380.5375 305.670864 
L 1380.5375 27.6 
" clip-path="url(#pbf68ad61cb)" style="fill: none; stroke: #ffffff; stroke-width: 0.8; stroke-linecap: square"/>
     </g>
     <g id="line2d_18">
      <g>
       <use xlink:href="#m6026c76de6" x="1380.5375" y="305.670864" style="fill: #555555; stroke: #555555; stroke-width: 0.8"/>
      </g>
     </g>
     <g id="text_9">
      <!-- 2024-01 -->
      <g style="fill: #555555" transform="translate(1367.716217 347.58868) rotate(-45) scale(0.1 -0.1)">
       <defs>
        <path id="DejaVuSans-34" d="M 2419 4116 
L 825 1625 
L 2419 1625 
L 2419 4116 
z
M 2253 4666 
L 3047 4666 
L 3047 1625 
L 3713 1625 
L 3713 1100 
L 3047 1100 
L 3047 0 
L 2419 0 
L 2419 1100 
L 313 1100 
L 313 1709 
L 2253 4666 
z
" transform="scale(0.015625)"/>
       </defs>
       <use xlink:href="#DejaVuSans-32"/>
       <use xlink:href="#DejaVuSans-30" x="63.623047"/>
       <use xlink:href="#DejaVuSans-32" x="127.246094"/>
       <use xlink:href="#DejaVuSans-34" x="190.869141"/>
       <use xlink:href="#DejaVuSans-2d" x="254.492188"/>
       <use xlink:href="#DejaVuSans-30" x="290.576172"/>
       <use xlink:href="#DejaVuSans-31" x="354.199219"/>
      </g>
     </g>
    </g>
   </g>
   <g id="matplotlib.axis_2">
    <g id="ytick_1">
     <g id="line2d_19">
      <path d="M 66.35 295.057008 
L 1429.2 295.057008 
" clip-path="url(#pbf68ad61cb)" style="fill: none; stroke: #ffffff; stroke-width: 0.8; stroke-linecap: square"/>
     </g>
     <g id="line2d_20">
      <defs>
       <path id="m5c95a1bd2c" d="M 0 0 
L -3.5 0 
" style="stroke: #555555; stroke-width: 0.8"/>
      </defs>
      <g>
       <use xlink:href="#m5c95a1bd2c" x="66.35" y="295.057008" style="fill: #555555; stroke: #555555; stroke-width: 0.8"/>
      </g>
     </g>
     <g id="text_10">
      <!-- 0 -->
      <g style="fill: #555555" transform="translate(52.9875 298.856226) scale(0.1 -0.1)">
       <use xlink:href="#DejaVuSans-30"/>
      </g>
     </g>
    </g>
    <g id="ytick_2">
     <g id="line2d_21">
      <path d="M 66.35 238.472409 
L 1429.2 238.472409 
" clip-path="url(#pbf68ad61cb)" style="fill: none; stroke: #ffffff; stroke-width: 0.8; stroke-linecap: square"/>
     </g>
     <g id="line2d_22">
      <g>
       <use xlink:href="#m5c95a1bd2c" x="66.35" y="238.472409" style="fill: #555555; stroke: #555555; stroke-width: 0.8"/>
      </g>
     </g>
     <g id="text_11">
      <!-- 10000 -->
      <g style="fill: #555555" transform="translate(27.5375 242.271628) scale(0.1 -0.1)">
       <use xlink:href="#DejaVuSans-31"/>
       <use xlink:href="#DejaVuSans-30" x="63.623047"/>
       <use xlink:href="#DejaVuSans-30" x="127.246094"/>
       <use xlink:href="#DejaVuSans-30" x="190.869141"/>
       <use xlink:href="#DejaVuSans-30" x="254.492188"/>
      </g>
     </g>
    </g>
    <g id="ytick_3">
     <g id="line2d_23">
      <path d="M 66.35 181.88781 
L 1429.2 181.88781 
" clip-path="url(#pbf68ad61cb)" style="fill: none; stroke: #ffffff; stroke-width: 0.8; stroke-linecap: square"/>
     </g>
     <g id="line2d_24">
      <g>
       <use xlink:href="#m5c95a1bd2c" x="66.35" y="181.88781" style="fill: #555555; stroke: #555555; stroke-width: 0.8"/>
      </g>
     </g>
     <g id="text_12">
      <!-- 20000 -->
      <g style="fill: #555555" transform="translate(27.5375 185.687029) scale(0.1 -0.1)">
       <use xlink:href="#DejaVuSans-32"/>
       <use xlink:href="#DejaVuSans-30" x="63.623047"/>
       <use xlink:href="#DejaVuSans-30" x="127.246094"/>
       <use xlink:href="#DejaVuSans-30" x="190.869141"/>
       <use xlink:href="#DejaVuSans-30" x="254.492188"/>
      </g>
     </g>
    </g>
    <g id="ytick_4">
     <g id="line2d_25">
      <path d="M 66.35 125.303212 
L 1429.2 125.303212 
" clip-path="url(#pbf68ad61cb)" style="fill: none; stroke: #ffffff; stroke-width: 0.8; stroke-linecap: square"/>
     </g>
     <g id="line2d_26">
      <g>
       <use xlink:href="#m5c95a1bd2c" x="66.35" y="125.303212" style="fill: #555555; stroke: #555555; stroke-width: 0.8"/>
      </g>
     </g>
     <g id="text_13">
      <!-- 30000 -->
      <g style="fill: #555555" transform="translate(27.5375 129.102431) scale(0.1 -0.1)">
       <use xlink:href="#DejaVuSans-33"/>
       <use xlink:href="#DejaVuSans-30" x="63.623047"/>
       <use xlink:href="#DejaVuSans-30" x="127.246094"/>
       <use xlink:href="#DejaVuSans-30" x="190.869141"/>
       <use xlink:href="#DejaVuSans-30" x="254.492188"/>
      </g>
     </g>
    </g>
    <g id="ytick_5">
     <g id="line2d_27">
      <path d="M 66.35 68.718613 
L 1429.2 68.718613 
" clip-path="url(#pbf68ad61cb)" style="fill: none; stroke: #ffffff; stroke-width: 0.8; stroke-linecap: square"/>
     </g>
     <g id="line2d_28">
      <g>
       <use xlink:href="#m5c95a1bd2c" x="66.35" y="68.718613" style="fill: #555555; stroke: #555555; stroke-width: 0.8"/>
      </g>
     </g>
     <g id="text_14">
      <!-- 40000 -->
      <g style="fill: #555555" transform="translate(27.5375 72.517832) scale(0.1 -0.1)">
       <use xlink:href="#DejaVuSans-34"/>
       <use xlink:href="#DejaVuSans-30" x="63.623047"/>
       <use xlink:href="#DejaVuSans-30" x="127.246094"/>
       <use xlink:href="#DejaVuSans-30" x="190.869141"/>
       <use xlink:href="#DejaVuSans-30" x="254.492188"/>
      </g>
     </g>
    </g>
    <g id="text_15">
     <!-- Births -->
     <g style="fill: #555555" transform="translate(21.041875 184.165744) rotate(-90) scale(0.12 -0.12)">
      <defs>
       <path id="DejaVuSans-42" d="M 1259 2228 
L 1259 519 
L 2272 519 
Q 2781 519 3026 730 
Q 3272 941 3272 1375 
Q 3272 1813 3026 2020 
Q 2781 2228 2272 2228 
L 1259 2228 
z
M 1259 4147 
L 1259 2741 
L 2194 2741 
Q 2656 2741 2882 2914 
Q 3109 3088 3109 3444 
Q 3109 3797 2882 3972 
Q 2656 4147 2194 4147 
L 1259 4147 
z
M 628 4666 
L 2241 4666 
Q 2963 4666 3353 4366 
Q 3744 4066 3744 3513 
Q 3744 3084 3544 2831 
Q 3344 2578 2956 2516 
Q 3422 2416 3680 2098 
Q 3938 1781 3938 1306 
Q 3938 681 3513 340 
Q 3088 0 2303 0 
L 628 0 
L 628 4666 
z
" transform="scale(0.015625)"/>
       <path id="DejaVuSans-69" d="M 603 3500 
L 1178 3500 
L 1178 0 
L 603 0 
L 603 3500 
z
M 603 4863 
L 1178 4863 
L 1178 4134 
L 603 4134 
L 603 4863 
z
" transform="scale(0.015625)"/>
       <path id="DejaVuSans-72" d="M 2631 2963 
Q 2534 3019 2420 3045 
Q 2306 3072 2169 3072 
Q 1681 3072 1420 2755 
Q 1159 2438 1159 1844 
L 1159 0 
L 581 0 
L 581 3500 
L 1159 3500 
L 1159 2956 
Q 1341 3275 1631 3429 
Q 1922 3584 2338 3584 
Q 2397 3584 2469 3576 
Q 2541 3569 2628 3553 
L 2631 2963 
z
" transform="scale(0.015625)"/>
       <path id="DejaVuSans-74" d="M 1172 4494 
L 1172 3500 
L 2356 3500 
L 2356 3053 
L 1172 3053 
L 1172 1153 
Q 1172 725 1289 603 
Q 1406 481 1766 481 
L 2356 481 
L 2356 0 
L 1766 0 
Q 1100 0 847 248 
Q 594 497 594 1153 
L 594 3053 
L 172 3053 
L 172 3500 
L 594 3500 
L 594 4494 
L 1172 4494 
z
" transform="scale(0.015625)"/>
       <path id="DejaVuSans-68" d="M 3513 2113 
L 3513 0 
L 2938 0 
L 2938 2094 
Q 2938 2591 2744 2837 
Q 2550 3084 2163 3084 
Q 1697 3084 1428 2787 
Q 1159 2491 1159 1978 
L 1159 0 
L 581 0 
L 581 4863 
L 1159 4863 
L 1159 2956 
Q 1366 3272 1645 3428 
Q 1925 3584 2291 3584 
Q 2894 3584 3203 3211 
Q 3513 2838 3513 2113 
z
" transform="scale(0.015625)"/>
       <path id="DejaVuSans-73" d="M 2834 3397 
L 2834 2853 
Q 2591 2978 2328 3040 
Q 2066 3103 1784 3103 
Q 1356 3103 1142 2972 
Q 928 2841 928 2578 
Q 928 2378 1081 2264 
Q 1234 2150 1697 2047 
L 1894 2003 
Q 2506 1872 2764 1633 
Q 3022 1394 3022 966 
Q 3022 478 2636 193 
Q 2250 -91 1575 -91 
Q 1294 -91 989 -36 
Q 684 19 347 128 
L 347 722 
Q 666 556 975 473 
Q 1284 391 1588 391 
Q 1994 391 2212 530 
Q 2431 669 2431 922 
Q 2431 1156 2273 1281 
Q 2116 1406 1581 1522 
L 1381 1569 
Q 847 1681 609 1914 
Q 372 2147 372 2553 
Q 372 3047 722 3315 
Q 1072 3584 1716 3584 
Q 2034 3584 2315 3537 
Q 2597 3491 2834 3397 
z
" transform="scale(0.015625)"/>
      </defs>
      <use xlink:href="#DejaVuSans-42"/>
      <use xlink:href="#DejaVuSans-69" x="68.603516"/>
      <use xlink:href="#DejaVuSans-72" x="96.386719"/>
      <use xlink:href="#DejaVuSans-74" x="137.5"/>
      <use xlink:href="#DejaVuSans-68" x="176.708984"/>
      <use xlink:href="#DejaVuSans-73" x="240.087891"/>
     </g>
    </g>
   </g>
   <g id="line2d_29">
    <path d="M 128.297727 267.868108 
L 141.582954 268.360394 
L 154.01107 267.754939 
L 167.296297 269.44116 
L 180.152968 267.885083 
L 193.438195 266.498761 
L 206.294866 266.521395 
L 219.580093 264.925709 
L 232.865319 265.412336 
L 245.721991 266.917487 
L 259.007218 267.27397 
L 271.863889 267.121191 
L 285.149116 267.121191 
L 298.434342 269.610914 
L 310.433902 267.845474 
L 323.719129 270.255978 
L 336.5758 268.105763 
L 349.861027 267.766256 
L 362.717698 266.46481 
L 376.002925 263.714798 
L 389.288152 265.570773 
L 402.144823 266.419542 
L 415.43005 266.940121 
L 428.286721 267.353188 
L 441.571948 267.319237 
L 454.857175 270.487975 
L 466.856735 268.11708 
L 480.141962 270.199393 
L 492.998633 267.981277 
L 506.28386 268.077471 
L 519.140531 267.12685 
L 532.425758 265.208632 
L 545.710985 267.805865 
L 558.567656 266.747733 
L 571.852883 267.78889 
L 584.709554 266.985388 
L 597.994781 266.561004 
L 611.280008 270.165443 
L 623.279567 269.418526 
L 636.564794 269.395892 
L 649.421466 267.856791 
L 662.706692 269.763692 
L 675.563364 266.379933 
L 688.84859 264.161817 
L 702.133817 265.474579 
L 714.990489 265.604724 
L 728.275715 268.066154 
L 741.132387 266.164912 
L 754.417613 267.019339 
L 767.70284 269.88252 
L 780.130956 268.037862 
L 793.416183 269.214821 
L 806.272854 269.537354 
L 819.558081 267.902059 
L 832.414752 265.497213 
L 845.699979 265.627358 
L 858.985206 266.75905 
L 871.841877 268.026545 
L 885.127104 269.684474 
L 897.983775 267.302262 
L 911.269002 269.29404 
L 924.554229 270.244661 
L 936.553788 268.145373 
L 949.839015 269.486427 
L 962.695686 269.526037 
L 975.980913 267.1608 
L 988.837585 265.893305 
L 1002.122811 265.791453 
L 1015.408038 265.932915 
L 1028.264709 266.945779 
L 1041.549936 267.330554 
L 1054.406607 266.436518 
L 1067.691834 267.851133 
L 1080.977061 270.255978 
L 1092.976621 267.86245 
L 1106.261848 269.84291 
L 1119.118519 269.095994 
L 1132.403746 268.41132 
L 1145.260417 266.730758 
L 1158.545644 263.969429 
L 1171.830871 266.46481 
L 1184.687542 267.67572 
L 1197.972769 267.223044 
L 1210.82944 266.266764 
L 1224.114667 266.787342 
L 1237.399894 270.125833 
L 1249.399454 267.268311 
L 1262.684681 270.289929 
L 1275.541352 268.801754 
L 1288.826579 267.760597 
L 1301.68325 267.336213 
L 1314.968477 265.865013 
L 1328.253703 266.804318 
L 1341.110375 267.013681 
L 1354.395602 267.49465 
L 1367.252273 267.74928 
" clip-path="url(#pbf68ad61cb)" style="fill: none; stroke: #348abd; stroke-opacity: 0.3; stroke-width: 1.5; stroke-linecap: square"/>
   </g>
   <g id="line2d_30">
    <path d="M 128.297727 72.396612 
L 141.582954 81.201176 
L 154.01107 63.773119 
L 167.296297 76.504654 
L 180.152968 71.185702 
L 193.438195 69.997425 
L 206.294866 62.726304 
L 219.580093 40.239585 
L 232.865319 44.828596 
L 245.721991 56.004054 
L 259.007218 69.103388 
L 271.863889 66.715518 
L 285.149116 72.328711 
L 298.434342 91.341136 
L 310.433902 73.624498 
L 323.719129 85.841113 
L 336.5758 72.113689 
L 349.861027 74.631704 
L 362.717698 66.030845 
L 376.002925 56.094589 
L 389.288152 60.372385 
L 402.144823 66.398645 
L 415.43005 75.429547 
L 428.286721 77.619371 
L 441.571948 78.983059 
L 454.857175 100.026872 
L 466.856735 81.104982 
L 480.141962 93.71203 
L 492.998633 83.487193 
L 506.28386 87.391531 
L 519.140531 70.948046 
L 532.425758 62.466015 
L 545.710985 73.918738 
L 558.567656 72.707827 
L 571.852883 79.430078 
L 584.709554 82.36116 
L 597.994781 83.589046 
L 611.280008 103.076781 
L 623.279567 84.964051 
L 636.564794 96.778916 
L 649.421466 83.668264 
L 662.706692 93.4574 
L 675.563364 72.968117 
L 688.84859 67.343607 
L 702.133817 76.204756 
L 714.990489 72.617292 
L 728.275715 91.188357 
L 741.132387 88.444004 
L 754.417613 91.612742 
L 767.70284 107.218774 
L 780.130956 97.463589 
L 793.416183 104.095304 
L 806.272854 97.531491 
L 819.558081 100.196625 
L 832.414752 84.618885 
L 845.699979 84.647178 
L 858.985206 89.162629 
L 871.841877 91.737228 
L 885.127104 106.392639 
L 897.983775 107.988325 
L 911.269002 114.444627 
L 924.554229 124.997655 
L 936.553788 99.279955 
L 949.839015 105.821134 
L 962.695686 100.802081 
L 975.980913 97.503198 
L 988.837585 88.896681 
L 1002.122811 78.105998 
L 1015.408038 83.215587 
L 1028.264709 85.371461 
L 1041.549936 94.526849 
L 1054.406607 87.72538 
L 1067.691834 99.828826 
L 1080.977061 114.246581 
L 1092.976621 94.775821 
L 1106.261848 110.749653 
L 1119.118519 102.544886 
L 1132.403746 101.594265 
L 1145.260417 87.776306 
L 1158.545644 80.810742 
L 1171.830871 91.810788 
L 1184.687542 94.787138 
L 1197.972769 96.326239 
L 1210.82944 93.949686 
L 1224.114667 103.840674 
L 1237.399894 122.287253 
L 1249.399454 107.846863 
L 1262.684681 120.029527 
L 1275.541352 109.51045 
L 1288.826579 110.24605 
L 1301.68325 101.118954 
L 1314.968477 91.54484 
L 1328.253703 100.190967 
L 1341.110375 98.029435 
L 1354.395602 106.20591 
L 1367.252273 105.83811 
" clip-path="url(#pbf68ad61cb)" style="fill: none; stroke: #348abd; stroke-opacity: 0.3; stroke-width: 1.5; stroke-linecap: square"/>
   </g>
   <g id="line2d_31">
    <path d="M 128.297727 264.863466 
L 141.582954 266.883536 
L 154.01107 263.601629 
L 167.296297 264.139183 
L 180.152968 262.928273 
L 193.438195 262.554814 
L 206.294866 262.16438 
L 219.580093 260.840301 
L 232.865319 261.796581 
L 245.721991 263.799675 
L 259.007218 264.863466 
L 271.863889 265.321801 
L 285.149116 266.821293 
L 298.434342 268.897948 
L 310.433902 264.139183 
L 323.719129 265.865013 
L 336.5758 263.788358 
L 349.861027 262.775494 
L 362.717698 263.392266 
L 376.002925 262.170039 
L 389.288152 263.318706 
L 402.144823 263.901528 
L 415.43005 266.204521 
L 428.286721 265.10678 
L 441.571948 265.65565 
L 454.857175 267.992594 
L 466.856735 265.185998 
L 480.141962 266.46481 
L 492.998633 264.258011 
L 506.28386 266.09701 
L 519.140531 263.861918 
L 532.425758 262.956565 
L 545.710985 264.280644 
L 558.567656 265.038878 
L 571.852883 266.436518 
L 584.709554 266.623247 
L 597.994781 266.176228 
L 611.280008 268.660292 
L 623.279567 266.051742 
L 636.564794 266.442176 
L 649.421466 264.490007 
L 662.706692 265.429312 
L 675.563364 263.4149 
L 688.84859 262.260574 
L 702.133817 264.116549 
L 714.990489 264.031672 
L 728.275715 267.036314 
L 741.132387 266.83261 
L 754.417613 266.855244 
L 767.70284 268.400003 
L 780.130956 265.163364 
L 793.416183 266.176228 
L 806.272854 265.248241 
L 819.558081 265.780136 
L 832.414752 263.901528 
L 845.699979 264.456057 
L 858.985206 265.355752 
L 871.841877 265.440629 
L 885.127104 268.037862 
L 897.983775 267.907717 
L 911.269002 268.603708 
L 924.554229 267.986936 
L 936.553788 265.197315 
L 949.839015 264.869124 
L 962.695686 264.376838 
L 975.980913 263.799675 
L 988.837585 263.34134 
L 1002.122811 263.098026 
L 1015.408038 264.66542 
L 1028.264709 265.14073 
L 1041.549936 266.860902 
L 1054.406607 266.549687 
L 1067.691834 267.398456 
L 1080.977061 268.858338 
L 1092.976621 265.21429 
L 1106.261848 266.306373 
L 1119.118519 264.563567 
L 1132.403746 264.942684 
L 1145.260417 263.731774 
L 1158.545644 263.924161 
L 1171.830871 265.525506 
L 1184.687542 264.456057 
L 1197.972769 266.53837 
L 1210.82944 266.232813 
L 1224.114667 267.466357 
L 1237.399894 268.745169 
L 1249.399454 265.338776 
L 1262.684681 266.193204 
L 1275.541352 265.202973 
L 1288.826579 265.384044 
L 1301.68325 265.316143 
L 1314.968477 263.624263 
L 1328.253703 265.757502 
L 1341.110375 265.780136 
L 1354.395602 266.787342 
L 1367.252273 267.12685 
" clip-path="url(#pbf68ad61cb)" style="fill: none; stroke: #348abd; stroke-opacity: 0.3; stroke-width: 1.5; stroke-linecap: square"/>
   </g>
   <g id="line2d_32">
    <path d="M 128.297727 290.609458 
L 141.582954 290.767895 
L 154.01107 290.230341 
L 167.296297 291.028184 
L 180.152968 290.275609 
L 193.438195 290.185074 
L 206.294866 290.032295 
L 219.580093 290.01532 
L 232.865319 290.252975 
L 245.721991 290.326535 
L 259.007218 290.762237 
L 271.863889 290.417071 
L 285.149116 290.671701 
L 298.434342 290.999892 
L 310.433902 290.643409 
L 323.719129 290.852772 
L 336.5758 290.518923 
L 349.861027 290.281267 
L 362.717698 289.981369 
L 376.002925 290.247317 
L 389.288152 290.467997 
L 402.144823 290.524581 
L 415.43005 290.683018 
L 428.286721 290.716969 
L 441.571948 290.762237 
L 454.857175 291.11872 
L 466.856735 290.852772 
L 480.141962 290.9716 
L 492.998633 290.581166 
L 506.28386 290.592483 
L 519.140531 290.45668 
L 532.425758 290.400095 
L 545.710985 290.841455 
L 558.567656 290.332194 
L 571.852883 290.841455 
L 584.709554 290.807504 
L 597.994781 290.666043 
L 611.280008 291.463886 
L 623.279567 290.835797 
L 636.564794 291.209255 
L 649.421466 290.660384 
L 662.706692 290.813163 
L 675.563364 290.439704 
L 688.84859 290.473655 
L 702.133817 290.67736 
L 714.990489 290.507606 
L 728.275715 290.85843 
L 741.132387 290.705652 
L 754.417613 290.569849 
L 767.70284 291.011209 
L 780.130956 290.67736 
L 793.416183 291.180963 
L 806.272854 290.937649 
L 819.558081 290.671701 
L 832.414752 290.745261 
L 845.699979 290.705652 
L 858.985206 290.892381 
L 871.841877 290.875406 
L 885.127104 291.163987 
L 897.983775 291.039501 
L 911.269002 291.028184 
L 924.554229 291.509153 
L 936.553788 291.084769 
L 949.839015 291.29979 
L 962.695686 291.033843 
L 975.980913 291.163987 
L 988.837585 290.85843 
L 1002.122811 290.89804 
L 1015.408038 290.45668 
L 1028.264709 290.807504 
L 1041.549936 290.479314 
L 1054.406607 291.062135 
L 1067.691834 291.062135 
L 1080.977061 291.611006 
L 1092.976621 291.248864 
L 1106.261848 291.475203 
L 1119.118519 291.514812 
L 1132.403746 291.15267 
L 1145.260417 291.175304 
L 1158.545644 290.733944 
L 1171.830871 291.311107 
L 1184.687542 291.345058 
L 1197.972769 291.311107 
L 1210.82944 291.050818 
L 1224.114667 291.277156 
L 1237.399894 291.599689 
L 1249.399454 291.135695 
L 1262.684681 291.605347 
L 1275.541352 291.169646 
L 1288.826579 291.44691 
L 1301.68325 291.096086 
L 1314.968477 291.22623 
L 1328.253703 291.412959 
L 1341.110375 291.163987 
L 1354.395602 291.469544 
L 1367.252273 291.401643 
" clip-path="url(#pbf68ad61cb)" style="fill: none; stroke: #348abd; stroke-opacity: 0.3; stroke-width: 1.5; stroke-linecap: square"/>
   </g>
   <g id="line2d_33">
    <path d="M 128.297727 261.655119 
L 141.582954 263.48846 
L 154.01107 261.032688 
L 167.296297 261.790922 
L 180.152968 259.748218 
L 193.438195 259.799144 
L 206.294866 258.175166 
L 219.580093 257.960145 
L 232.865319 259.442661 
L 245.721991 260.314064 
L 259.007218 261.875799 
L 271.863889 261.564584 
L 285.149116 262.849054 
L 298.434342 265.474579 
L 310.433902 262.09082 
L 323.719129 263.250805 
L 336.5758 261.066639 
L 349.861027 260.613962 
L 362.717698 259.131446 
L 376.002925 257.247179 
L 389.288152 260.95347 
L 402.144823 259.646366 
L 415.43005 261.46839 
L 428.286721 261.513658 
L 441.571948 261.592876 
L 454.857175 265.808429 
L 466.856735 262.962223 
L 480.141962 262.792469 
L 492.998633 260.308406 
L 506.28386 261.61551 
L 519.140531 260.800692 
L 532.425758 257.954486 
L 545.710985 260.613962 
L 558.567656 259.329492 
L 571.852883 262.6793 
L 584.709554 262.022919 
L 597.994781 262.481254 
L 611.280008 265.627358 
L 623.279567 262.566131 
L 636.564794 263.013149 
L 649.421466 261.355221 
L 662.706692 262.713251 
L 675.563364 259.527538 
L 688.84859 259.199347 
L 702.133817 260.65923 
L 714.990489 260.913861 
L 728.275715 263.907186 
L 741.132387 261.621168 
L 754.417613 261.807897 
L 767.70284 265.242583 
L 780.130956 262.634033 
L 793.416183 263.528069 
L 806.272854 262.452962 
L 819.558081 262.209648 
L 832.414752 259.985873 
L 845.699979 259.900996 
L 858.985206 262.57179 
L 871.841877 263.205537 
L 885.127104 265.259558 
L 897.983775 263.975088 
L 911.269002 265.961207 
L 924.554229 267.370164 
L 936.553788 263.052759 
L 949.839015 264.235377 
L 962.695686 262.803786 
L 975.980913 261.315611 
L 988.837585 259.884021 
L 1002.122811 260.240504 
L 1015.408038 261.123224 
L 1028.264709 261.372196 
L 1041.549936 263.771383 
L 1054.406607 263.165928 
L 1067.691834 263.397925 
L 1080.977061 265.519847 
L 1092.976621 262.226623 
L 1106.261848 264.133524 
L 1119.118519 263.024466 
L 1132.403746 262.288867 
L 1145.260417 260.653572 
L 1158.545644 259.929289 
L 1171.830871 262.922614 
L 1184.687542 262.49823 
L 1197.972769 262.967882 
L 1210.82944 261.921067 
L 1224.114667 263.4149 
L 1237.399894 267.392797 
L 1249.399454 264.110891 
L 1262.684681 265.757502 
L 1275.541352 263.839285 
L 1288.826579 262.984857 
L 1301.68325 262.288867 
L 1314.968477 262.119113 
L 1328.253703 264.082598 
L 1341.110375 263.4149 
L 1354.395602 264.942684 
L 1367.252273 265.174681 
" clip-path="url(#pbf68ad61cb)" style="fill: none; stroke: #348abd; stroke-opacity: 0.3; stroke-width: 1.5; stroke-linecap: square"/>
   </g>
   <g id="line2d_34">
    <path d="M 128.297727 244.753299 
L 141.582954 246.230157 
L 154.01107 241.018716 
L 167.296297 242.62006 
L 180.152968 239.711612 
L 193.438195 239.700295 
L 206.294866 238.172511 
L 219.580093 237.414277 
L 232.865319 239.977559 
L 245.721991 242.795472 
L 259.007218 243.864921 
L 271.863889 243.236832 
L 285.149116 244.034675 
L 298.434342 247.508969 
L 310.433902 242.139091 
L 323.719129 245.087149 
L 336.5758 240.616965 
L 349.861027 240.662233 
L 362.717698 239.400396 
L 376.002925 237.261499 
L 389.288152 241.097934 
L 402.144823 242.637035 
L 415.43005 245.070173 
L 428.286721 244.668423 
L 441.571948 244.396816 
L 454.857175 248.810415 
L 466.856735 242.235285 
L 480.141962 244.555253 
L 492.998633 240.622624 
L 506.28386 241.652463 
L 519.140531 240.186922 
L 532.425758 238.964695 
L 545.710985 242.965226 
L 558.567656 242.314503 
L 571.852883 246.303717 
L 584.709554 245.064515 
L 597.994781 246.071721 
L 611.280008 249.082021 
L 623.279567 244.685398 
L 636.564794 245.783139 
L 649.421466 241.946703 
L 662.706692 242.795472 
L 675.563364 239.655027 
L 688.84859 239.64371 
L 702.133817 242.942592 
L 714.990489 244.085601 
L 728.275715 246.841271 
L 741.132387 246.682834 
L 754.417613 246.100013 
L 767.70284 248.187985 
L 780.130956 245.358755 
L 793.416183 246.869563 
L 806.272854 244.040334 
L 819.558081 243.927164 
L 832.414752 241.969337 
L 845.699979 243.536731 
L 858.985206 244.849493 
L 871.841877 246.071721 
L 885.127104 250.796535 
L 897.983775 250.07791 
L 911.269002 251.430282 
L 924.554229 251.922568 
L 936.553788 246.269767 
L 949.839015 246.490447 
L 962.695686 244.56657 
L 975.980913 241.312956 
L 988.837585 240.01151 
L 1002.122811 241.533636 
L 1015.408038 243.378294 
L 1028.264709 246.354644 
L 1041.549936 247.429751 
L 1054.406607 245.958551 
L 1067.691834 250.349516 
L 1080.977061 251.58306 
L 1092.976621 245.613385 
L 1106.261848 247.859794 
L 1119.118519 245.194659 
L 1132.403746 244.498669 
L 1145.260417 243.966774 
L 1158.545644 243.72346 
L 1171.830871 246.213182 
L 1184.687542 247.458043 
L 1197.972769 248.250228 
L 1210.82944 246.99405 
L 1224.114667 249.63655 
L 1237.399894 251.956519 
L 1249.399454 247.243022 
L 1262.684681 250.428735 
L 1275.541352 247.344874 
L 1288.826579 246.213182 
L 1301.68325 245.002272 
L 1314.968477 245.030564 
L 1328.253703 248.272861 
L 1341.110375 249.506406 
L 1354.395602 249.466797 
L 1367.252273 249.693135 
" clip-path="url(#pbf68ad61cb)" style="fill: none; stroke: #348abd; stroke-opacity: 0.3; stroke-width: 1.5; stroke-linecap: square"/>
   </g>
   <g id="line2d_35">
    <path d="M 128.297727 264.144841 
L 141.582954 263.737432 
L 154.01107 262.651008 
L 167.296297 262.97354 
L 180.152968 260.517769 
L 193.438195 260.642255 
L 206.294866 260.478159 
L 219.580093 258.961692 
L 232.865319 261.723021 
L 245.721991 263.324365 
L 259.007218 263.692165 
L 271.863889 263.165928 
L 285.149116 264.631469 
L 298.434342 266.108327 
L 310.433902 262.35111 
L 323.719129 263.301731 
L 336.5758 260.449867 
L 349.861027 260.749765 
L 362.717698 260.998738 
L 376.002925 260.048116 
L 389.288152 262.068187 
L 402.144823 262.97354 
L 415.43005 264.535275 
L 428.286721 264.325912 
L 441.571948 264.139183 
L 454.857175 267.087241 
L 466.856735 262.594423 
L 480.141962 263.618605 
L 492.998633 261.502341 
L 506.28386 262.651008 
L 519.140531 261.858824 
L 532.425758 259.867046 
L 545.710985 263.307389 
L 558.567656 263.754408 
L 571.852883 264.755955 
L 584.709554 264.484349 
L 597.994781 265.734869 
L 611.280008 267.319237 
L 623.279567 264.059964 
L 636.564794 264.62581 
L 649.421466 261.621168 
L 662.706692 263.228171 
L 675.563364 260.942153 
L 688.84859 261.360879 
L 702.133817 263.482802 
L 714.990489 262.481254 
L 728.275715 266.057401 
L 741.132387 266.159253 
L 754.417613 266.589296 
L 767.70284 267.27397 
L 780.130956 264.546592 
L 793.416183 265.004927 
L 806.272854 263.358315 
L 819.558081 263.629922 
L 832.414752 262.509546 
L 845.699979 263.578995 
L 858.985206 265.084146 
L 871.841877 265.225607 
L 885.127104 267.992594 
L 897.983775 266.900511 
L 911.269002 268.716877 
L 924.554229 268.620683 
L 936.553788 264.506983 
L 949.839015 265.169023 
L 962.695686 263.482802 
L 975.980913 262.20399 
L 988.837585 261.887116 
L 1002.122811 262.469937 
L 1015.408038 263.375291 
L 1028.264709 264.439081 
L 1041.549936 265.485896 
L 1054.406607 265.780136 
L 1067.691834 267.302262 
L 1080.977061 267.245677 
L 1092.976621 264.755955 
L 1106.261848 265.58209 
L 1119.118519 263.437534 
L 1132.403746 263.188562 
L 1145.260417 262.990516 
L 1158.545644 263.697823 
L 1171.830871 264.722004 
L 1184.687542 265.089804 
L 1197.972769 265.740527 
L 1210.82944 264.705029 
L 1224.114667 266.176228 
L 1237.399894 268.637659 
L 1249.399454 265.044537 
L 1262.684681 266.725099 
L 1275.541352 265.191656 
L 1288.826579 264.755955 
L 1301.68325 265.03322 
L 1314.968477 264.059964 
L 1328.253703 266.300715 
L 1341.110375 265.536823 
L 1354.395602 266.736416 
L 1367.252273 267.27397 
" clip-path="url(#pbf68ad61cb)" style="fill: none; stroke: #348abd; stroke-opacity: 0.3; stroke-width: 1.5; stroke-linecap: square"/>
   </g>
   <g id="line2d_36">
    <path d="M 128.297727 248.770806 
L 141.582954 250.242006 
L 154.01107 246.931806 
L 167.296297 249.12163 
L 180.152968 245.805773 
L 193.438195 245.454948 
L 206.294866 243.35566 
L 219.580093 244.096918 
L 232.865319 244.911736 
L 245.721991 246.73376 
L 259.007218 247.797551 
L 271.863889 246.637567 
L 285.149116 249.67616 
L 298.434342 252.567633 
L 310.433902 246.982733 
L 323.719129 251.022873 
L 336.5758 246.784687 
L 349.861027 246.100013 
L 362.717698 244.583546 
L 376.002925 243.140638 
L 389.288152 245.630361 
L 402.144823 246.167914 
L 415.43005 246.948782 
L 428.286721 248.159692 
L 441.571948 248.629344 
L 454.857175 252.799629 
L 466.856735 246.875222 
L 480.141962 248.900951 
L 492.998633 246.122647 
L 506.28386 246.286742 
L 519.140531 245.149392 
L 532.425758 242.603085 
L 545.710985 246.25845 
L 558.567656 246.11133 
L 571.852883 249.438504 
L 584.709554 248.742514 
L 597.994781 249.687476 
L 611.280008 253.42206 
L 623.279567 249.845913 
L 636.564794 249.398895 
L 649.421466 247.209071 
L 662.706692 247.786234 
L 675.563364 245.245585 
L 688.84859 243.514097 
L 702.133817 245.347438 
L 714.990489 246.643225 
L 728.275715 249.851572 
L 741.132387 249.2348 
L 754.417613 248.878317 
L 767.70284 252.307343 
L 780.130956 248.804757 
L 793.416183 250.643756 
L 806.272854 247.537262 
L 819.558081 247.265656 
L 832.414752 245.720896 
L 845.699979 246.071721 
L 858.985206 246.100013 
L 871.841877 250.111861 
L 885.127104 251.011556 
L 897.983775 251.962177 
L 911.269002 254.37834 
L 924.554229 253.314549 
L 936.553788 247.259997 
L 949.839015 247.661748 
L 962.695686 247.882428 
L 975.980913 244.968321 
L 988.837585 243.219857 
L 1002.122811 242.942592 
L 1015.408038 243.995066 
L 1028.264709 245.358755 
L 1041.549936 248.108766 
L 1054.406607 247.276973 
L 1067.691834 248.917926 
L 1080.977061 251.266187 
L 1092.976621 246.049087 
L 1106.261848 248.702904 
L 1119.118519 247.91072 
L 1132.403746 246.179231 
L 1145.260417 243.485804 
L 1158.545644 242.444648 
L 1171.830871 246.507422 
L 1184.687542 245.737871 
L 1197.972769 245.856699 
L 1210.82944 245.409681 
L 1224.114667 248.369055 
L 1237.399894 251.577402 
L 1249.399454 247.735308 
L 1262.684681 251.339747 
L 1275.541352 246.473471 
L 1288.826579 246.066062 
L 1301.68325 244.606179 
L 1314.968477 244.379841 
L 1328.253703 246.298059 
L 1341.110375 246.049087 
L 1354.395602 248.816074 
L 1367.252273 247.463702 
" clip-path="url(#pbf68ad61cb)" style="fill: none; stroke: #348abd; stroke-opacity: 0.3; stroke-width: 1.5; stroke-linecap: square"/>
   </g>
   <g id="line2d_37">
    <path d="M 128.297727 283.383605 
L 141.582954 283.813648 
L 154.01107 283.44019 
L 167.296297 284.051303 
L 180.152968 283.609943 
L 193.438195 283.343996 
L 206.294866 282.896977 
L 219.580093 282.438642 
L 232.865319 283.004488 
L 245.721991 283.230826 
L 259.007218 283.875891 
L 271.863889 283.875891 
L 285.149116 283.796672 
L 298.434342 284.656758 
L 310.433902 283.479799 
L 323.719129 284.713343 
L 336.5758 284.000377 
L 349.861027 283.966426 
L 362.717698 283.044097 
L 376.002925 282.800784 
L 389.288152 283.191217 
L 402.144823 283.711796 
L 415.43005 284.436078 
L 428.286721 284.402128 
L 441.571948 284.436078 
L 454.857175 285.211287 
L 466.856735 284.554906 
L 480.141962 285.013241 
L 492.998633 283.898525 
L 506.28386 284.79822 
L 519.140531 283.508091 
L 532.425758 283.29307 
L 545.710985 283.089365 
L 558.567656 283.819306 
L 571.852883 284.537931 
L 584.709554 284.158814 
L 597.994781 284.407786 
L 611.280008 285.867669 
L 623.279567 284.645441 
L 636.564794 284.554906 
L 649.421466 284.000377 
L 662.706692 284.351202 
L 675.563364 283.468482 
L 688.84859 283.089365 
L 702.133817 283.581651 
L 714.990489 283.864574 
L 728.275715 284.328568 
L 741.132387 284.605832 
L 754.417613 284.781244 
L 767.70284 285.31314 
L 780.130956 284.526614 
L 793.416183 285.120752 
L 806.272854 284.769928 
L 819.558081 284.967974 
L 832.414752 284.06262 
L 845.699979 283.745746 
L 858.985206 284.130522 
L 871.841877 284.475688 
L 885.127104 285.737524 
L 897.983775 285.115094 
L 911.269002 285.601721 
L 924.554229 286.15625 
L 936.553788 285.273531 
L 949.839015 285.245238 
L 962.695686 285.256555 
L 975.980913 284.713343 
L 988.837585 284.436078 
L 1002.122811 284.515297 
L 1015.408038 284.249349 
L 1028.264709 284.769928 
L 1041.549936 284.911389 
L 1054.406607 284.515297 
L 1067.691834 285.279189 
L 1080.977061 286.116641 
L 1092.976621 284.803878 
L 1106.261848 285.443284 
L 1119.118519 285.047192 
L 1132.403746 285.273531 
L 1145.260417 283.581651 
L 1158.545644 283.638236 
L 1171.830871 284.719001 
L 1184.687542 284.747294 
L 1197.972769 284.877438 
L 1210.82944 284.854804 
L 1224.114667 285.216946 
L 1237.399894 285.992155 
L 1249.399454 284.803878 
L 1262.684681 286.00913 
L 1275.541352 285.0189 
L 1288.826579 285.109435 
L 1301.68325 284.509638 
L 1314.968477 284.334226 
L 1328.253703 285.245238 
L 1341.110375 285.426309 
L 1354.395602 285.352749 
L 1367.252273 285.115094 
" clip-path="url(#pbf68ad61cb)" style="fill: none; stroke: #348abd; stroke-opacity: 0.3; stroke-width: 1.5; stroke-linecap: square"/>
   </g>
   <g id="line2d_38">
    <path d="M 128.297727 274.36402 
L 141.582954 274.799721 
L 154.01107 272.870186 
L 167.296297 274.103731 
L 180.152968 273.011648 
L 193.438195 273.526568 
L 206.294866 271.919565 
L 219.580093 272.315657 
L 232.865319 272.887162 
L 245.721991 274.058463 
L 259.007218 274.646943 
L 271.863889 274.522457 
L 285.149116 275.303324 
L 298.434342 276.633062 
L 310.433902 274.318752 
L 323.719129 274.850647 
L 336.5758 273.175743 
L 349.861027 273.690663 
L 362.717698 273.543543 
L 376.002925 272.972039 
L 389.288152 273.724614 
L 402.144823 274.669577 
L 415.43005 275.727709 
L 428.286721 275.190155 
L 441.571948 275.195813 
L 454.857175 277.476173 
L 466.856735 274.65826 
L 480.141962 276.050241 
L 492.998633 274.239534 
L 506.28386 274.420604 
L 519.140531 273.945294 
L 532.425758 272.977697 
L 545.710985 275.580589 
L 558.567656 274.980792 
L 571.852883 276.135118 
L 584.709554 276.304872 
L 597.994781 275.473078 
L 611.280008 276.785841 
L 623.279567 275.161863 
L 636.564794 275.241081 
L 649.421466 274.771429 
L 662.706692 274.43758 
L 675.563364 273.877392 
L 688.84859 274.516798 
L 702.133817 275.529663 
L 714.990489 275.218447 
L 728.275715 276.67833 
L 741.132387 276.140776 
L 754.417613 276.729256 
L 767.70284 277.493148 
L 780.130956 276.021949 
L 793.416183 275.908779 
L 806.272854 275.28069 
L 819.558081 275.744684 
L 832.414752 274.471531 
L 845.699979 275.46742 
L 858.985206 276.350139 
L 871.841877 276.293555 
L 885.127104 278.341917 
L 897.983775 277.261151 
L 911.269002 277.504465 
L 924.554229 278.800252 
L 936.553788 275.710733 
L 949.839015 276.038924 
L 962.695686 275.110937 
L 975.980913 274.963817 
L 988.837585 274.228217 
L 1002.122811 274.250851 
L 1015.408038 274.969475 
L 1028.264709 275.167521 
L 1041.549936 276.214336 
L 1054.406607 276.214336 
L 1067.691834 277.295102 
L 1080.977061 278.092945 
L 1092.976621 275.971022 
L 1106.261848 277.102714 
L 1119.118519 276.265262 
L 1132.403746 276.004973 
L 1145.260417 275.784293 
L 1158.545644 275.043035 
L 1171.830871 275.659807 
L 1184.687542 277.227201 
L 1197.972769 276.395407 
L 1210.82944 276.372773 
L 1224.114667 277.606317 
L 1237.399894 279.349123 
L 1249.399454 277.283785 
L 1262.684681 277.623293 
L 1275.541352 276.406724 
L 1288.826579 276.655696 
L 1301.68325 275.829561 
L 1314.968477 275.971022 
L 1328.253703 277.102714 
L 1341.110375 276.101167 
L 1354.395602 276.978228 
L 1367.252273 277.068764 
" clip-path="url(#pbf68ad61cb)" style="fill: none; stroke: #348abd; stroke-opacity: 0.3; stroke-width: 1.5; stroke-linecap: square"/>
   </g>
   <g id="line2d_39">
    <path d="M 128.297727 292.703088 
L 141.582954 292.488067 
L 154.01107 292.374898 
L 167.296297 292.357922 
L 180.152968 292.210802 
L 193.438195 292.091975 
L 206.294866 291.995781 
L 219.580093 291.956172 
L 232.865319 292.306996 
L 245.721991 292.442799 
L 259.007218 292.680454 
L 271.863889 292.505042 
L 285.149116 292.222119 
L 298.434342 292.912451 
L 310.433902 292.522018 
L 323.719129 292.301338 
L 336.5758 292.346605 
L 349.861027 291.939196 
L 362.717698 292.335288 
L 376.002925 292.148559 
L 389.288152 292.408848 
L 402.144823 292.284362 
L 415.43005 292.471091 
L 428.286721 292.793624 
L 441.571948 292.680454 
L 454.857175 292.878501 
L 466.856735 292.380556 
L 480.141962 292.618211 
L 492.998633 292.555968 
L 506.28386 292.391873 
L 519.140531 292.154218 
L 532.425758 292.18251 
L 545.710985 292.578602 
L 558.567656 292.32963 
L 571.852883 292.646504 
L 584.709554 292.55031 
L 597.994781 292.663479 
L 611.280008 292.816257 
L 623.279567 292.493725 
L 636.564794 292.55031 
L 649.421466 292.420165 
L 662.706692 292.18251 
L 675.563364 292.25607 
L 688.84859 292.459775 
L 702.133817 292.448458 
L 714.990489 292.538993 
L 728.275715 292.759673 
L 741.132387 292.759673 
L 754.417613 292.646504 
L 767.70284 292.91811 
L 780.130956 292.425824 
L 793.416183 292.742698 
L 806.272854 292.454116 
L 819.558081 292.555968 
L 832.414752 292.391873 
L 845.699979 292.318313 
L 858.985206 292.612553 
L 871.841877 292.827574 
L 885.127104 292.969036 
L 897.983775 292.776648 
L 911.269002 292.793624 
L 924.554229 293.014304 
L 936.553788 292.663479 
L 949.839015 292.408848 
L 962.695686 292.533335 
L 975.980913 292.097633 
L 988.837585 292.148559 
L 1002.122811 292.001439 
L 1015.408038 292.40319 
L 1028.264709 292.640845 
L 1041.549936 292.850208 
L 1054.406607 292.663479 
L 1067.691834 292.499384 
L 1080.977061 293.025621 
L 1092.976621 292.40319 
L 1106.261848 292.584261 
L 1119.118519 292.420165 
L 1132.403746 292.278704 
L 1145.260417 292.391873 
L 1158.545644 292.374898 
L 1171.830871 292.431482 
L 1184.687542 292.691771 
L 1197.972769 292.748356 
L 1210.82944 292.754014 
L 1224.114667 292.84455 
L 1237.399894 293.031279 
L 1249.399454 292.725722 
L 1262.684681 292.533335 
L 1275.541352 292.471091 
L 1288.826579 292.578602 
L 1301.68325 292.652162 
L 1314.968477 292.352264 
L 1328.253703 292.657821 
L 1341.110375 292.84455 
L 1354.395602 292.635187 
L 1367.252273 292.69743 
" clip-path="url(#pbf68ad61cb)" style="fill: none; stroke: #348abd; stroke-opacity: 0.3; stroke-width: 1.5; stroke-linecap: square"/>
   </g>
   <g id="line2d_40">
    <path d="M 128.297727 251.41022 
L 141.582954 252.910227 
L 154.01107 249.607229 
L 167.296297 251.64839 
L 180.152968 249.717312 
L 193.438195 249.435932 
L 206.294866 248.039836 
L 219.580093 245.560402 
L 232.865319 246.958556 
L 245.721991 249.086136 
L 259.007218 250.948799 
L 271.863889 250.462171 
L 285.149116 251.768761 
L 298.434342 255.155606 
L 310.433902 250.921535 
L 323.719129 253.394796 
L 336.5758 250.269783 
L 349.861027 250.288816 
L 362.717698 248.991486 
L 376.002925 247.076869 
L 389.288152 248.982227 
L 402.144823 249.939535 
L 415.43005 251.810428 
L 428.286721 251.986354 
L 441.571948 252.162795 
L 454.857175 256.336167 
L 466.856735 251.956519 
L 480.141962 254.081528 
L 492.998633 251.414336 
L 506.28386 252.361356 
L 519.140531 249.999721 
L 532.425758 248.079445 
L 545.710985 251.021844 
L 558.567656 250.678736 
L 571.852883 252.817634 
L 584.709554 252.736872 
L 597.994781 253.046544 
L 611.280008 256.75335 
L 623.279567 253.157141 
L 636.564794 254.453957 
L 649.421466 251.818144 
L 662.706692 253.359817 
L 675.563364 249.834082 
L 688.84859 248.911239 
L 702.133817 250.951371 
L 714.990489 250.773386 
L 728.275715 254.324841 
L 741.132387 253.57741 
L 754.417613 253.9627 
L 767.70284 256.840799 
L 780.130956 254.150972 
L 793.416183 255.498715 
L 806.272854 253.922576 
L 819.558081 254.077412 
L 832.414752 251.443142 
L 845.699979 251.823288 
L 858.985206 253.078952 
L 871.841877 254.026486 
L 885.127104 257.035244 
L 897.983775 256.573308 
L 911.269002 258.159734 
L 924.554229 259.448834 
L 936.553788 254.40406 
L 949.839015 255.338735 
L 962.695686 254.306837 
L 975.980913 252.836667 
L 988.837585 251.34592 
L 1002.122811 250.531616 
L 1015.408038 251.614954 
L 1028.264709 252.578949 
L 1041.549936 254.36085 
L 1054.406607 253.395311 
L 1067.691834 255.561987 
L 1080.977061 257.983807 
L 1092.976621 253.720415 
L 1106.261848 256.343883 
L 1119.118519 254.638114 
L 1132.403746 254.164861 
L 1145.260417 252.02442 
L 1158.545644 250.935424 
L 1171.830871 253.480702 
L 1184.687542 253.974017 
L 1197.972769 254.385027 
L 1210.82944 253.682864 
L 1224.114667 255.694189 
L 1237.399894 259.15408 
L 1249.399454 255.503344 
L 1262.684681 258.048622 
L 1275.541352 255.58462 
L 1288.826579 255.381945 
L 1301.68325 254.071754 
L 1314.968477 252.773395 
L 1328.253703 254.920523 
L 1341.110375 254.624225 
L 1354.395602 256.080507 
L 1367.252273 256.054787 
" clip-path="url(#pbf68ad61cb)" style="fill: none; stroke-dasharray: 11.1,4.8; stroke-dashoffset: 0; stroke: #348abd; stroke-width: 3"/>
   </g>
   <g id="line2d_41">
    <path d="M 128.297727 113.154498 
L 141.582954 122.462665 
L 154.01107 109.029481 
L 167.296297 121.26873 
L 180.152968 113.058305 
L 193.438195 107.399845 
L 206.294866 101.899822 
L 219.580093 89.490819 
L 232.865319 94.996501 
L 245.721991 102.839126 
L 259.007218 107.388528 
L 271.863889 105.362799 
L 285.149116 116.181774 
L 298.434342 133.304274 
L 310.433902 119.373146 
L 323.719129 131.646345 
L 336.5758 118.671497 
L 349.861027 116.41943 
L 362.717698 110.693068 
L 376.002925 96.852476 
L 389.288152 101.97904 
L 402.144823 106.302104 
L 415.43005 113.160157 
L 428.286721 114.28619 
L 441.571948 114.489895 
L 454.857175 133.496662 
L 466.856735 121.132927 
L 480.141962 132.014145 
L 492.998633 119.565533 
L 506.28386 118.286722 
L 519.140531 109.617961 
L 532.425758 100.321112 
L 545.710985 108.876703 
L 558.567656 106.675562 
L 571.852883 116.470356 
L 584.709554 117.307808 
L 597.994781 116.357187 
L 611.280008 137.14071 
L 623.279567 128.290879 
L 636.564794 127.979663 
L 649.421466 117.387026 
L 662.706692 124.816584 
L 675.563364 104.632858 
L 688.84859 100.157016 
L 702.133817 106.845316 
L 714.990489 105.883378 
L 728.275715 122.711637 
L 741.132387 111.853053 
L 754.417613 116.736304 
L 767.70284 134.005923 
L 780.130956 123.554748 
L 793.416183 130.899429 
L 806.272854 128.353122 
L 819.558081 127.210113 
L 832.414752 111.253256 
L 845.699979 109.980102 
L 858.985206 111.434327 
L 871.841877 114.235264 
L 885.127104 126.389636 
L 897.983775 123.243532 
L 911.269002 134.209628 
L 924.554229 143.455551 
L 936.553788 123.379335 
L 949.839015 132.959108 
L 962.695686 128.771848 
L 975.980913 119.192075 
L 988.837585 108.220321 
L 1002.122811 103.438923 
L 1015.408038 103.212584 
L 1028.264709 110.24605 
L 1041.549936 113.358203 
L 1054.406607 106.273811 
L 1067.691834 117.522829 
L 1080.977061 131.77649 
L 1092.976621 112.469825 
L 1106.261848 126.355685 
L 1119.118519 122.745588 
L 1132.403746 113.14884 
L 1145.260417 105.577821 
L 1158.545644 88.53454 
L 1171.830871 103.37668 
L 1184.687542 108.220321 
L 1197.972769 106.330396 
L 1210.82944 99.291272 
L 1224.114667 110.947699 
L 1237.399894 131.227619 
L 1249.399454 117.37571 
L 1262.684681 131.652004 
L 1275.541352 115.938461 
L 1288.826579 112.798016 
L 1301.68325 107.377211 
L 1314.968477 94.549482 
L 1328.253703 104.593249 
L 1341.110375 102.250646 
L 1354.395602 107.08863 
L 1367.252273 109.714155 
" clip-path="url(#pbf68ad61cb)" style="fill: none; stroke: #e24a33; stroke-width: 1.5; stroke-linecap: square"/>
   </g>
   <g id="line2d_42">
    <path d="M 1106.261848 305.670864 
L 1106.261848 27.6 
" clip-path="url(#pbf68ad61cb)" style="fill: none; stroke-dasharray: 2,3.3; stroke-dashoffset: 0; stroke: #000000; stroke-width: 2"/>
   </g>
   <g id="patch_3">
    <path d="M 66.35 305.670864 
L 66.35 27.6 
" style="fill: none; stroke: #ffffff; stroke-linejoin: miter; stroke-linecap: square"/>
   </g>
   <g id="patch_4">
    <path d="M 1429.2 305.670864 
L 1429.2 27.6 
" style="fill: none; stroke: #ffffff; stroke-linejoin: miter; stroke-linecap: square"/>
   </g>
   <g id="patch_5">
    <path d="M 66.35 305.670864 
L 1429.2 305.670864 
" style="fill: none; stroke: #ffffff; stroke-linejoin: miter; stroke-linecap: square"/>
   </g>
   <g id="patch_6">
    <path d="M 66.35 27.6 
L 1429.2 27.6 
" style="fill: none; stroke: #ffffff; stroke-linejoin: miter; stroke-linecap: square"/>
   </g>
   <g id="text_16">
    <!-- Non-Parallel Trends -->
    <g transform="translate(678.853 21.6) scale(0.144 -0.144)">
     <defs>
      <path id="DejaVuSans-4e" d="M 628 4666 
L 1478 4666 
L 3547 763 
L 3547 4666 
L 4159 4666 
L 4159 0 
L 3309 0 
L 1241 3903 
L 1241 0 
L 628 0 
L 628 4666 
z
" transform="scale(0.015625)"/>
      <path id="DejaVuSans-6f" d="M 1959 3097 
Q 1497 3097 1228 2736 
Q 959 2375 959 1747 
Q 959 1119 1226 758 
Q 1494 397 1959 397 
Q 2419 397 2687 759 
Q 2956 1122 2956 1747 
Q 2956 2369 2687 2733 
Q 2419 3097 1959 3097 
z
M 1959 3584 
Q 2709 3584 3137 3096 
Q 3566 2609 3566 1747 
Q 3566 888 3137 398 
Q 2709 -91 1959 -91 
Q 1206 -91 779 398 
Q 353 888 353 1747 
Q 353 2609 779 3096 
Q 1206 3584 1959 3584 
z
" transform="scale(0.015625)"/>
      <path id="DejaVuSans-6e" d="M 3513 2113 
L 3513 0 
L 2938 0 
L 2938 2094 
Q 2938 2591 2744 2837 
Q 2550 3084 2163 3084 
Q 1697 3084 1428 2787 
Q 1159 2491 1159 1978 
L 1159 0 
L 581 0 
L 581 3500 
L 1159 3500 
L 1159 2956 
Q 1366 3272 1645 3428 
Q 1925 3584 2291 3584 
Q 2894 3584 3203 3211 
Q 3513 2838 3513 2113 
z
" transform="scale(0.015625)"/>
      <path id="DejaVuSans-50" d="M 1259 4147 
L 1259 2394 
L 2053 2394 
Q 2494 2394 2734 2622 
Q 2975 2850 2975 3272 
Q 2975 3691 2734 3919 
Q 2494 4147 2053 4147 
L 1259 4147 
z
M 628 4666 
L 2053 4666 
Q 2838 4666 3239 4311 
Q 3641 3956 3641 3272 
Q 3641 2581 3239 2228 
Q 2838 1875 2053 1875 
L 1259 1875 
L 1259 0 
L 628 0 
L 628 4666 
z
" transform="scale(0.015625)"/>
      <path id="DejaVuSans-61" d="M 2194 1759 
Q 1497 1759 1228 1600 
Q 959 1441 959 1056 
Q 959 750 1161 570 
Q 1363 391 1709 391 
Q 2188 391 2477 730 
Q 2766 1069 2766 1631 
L 2766 1759 
L 2194 1759 
z
M 3341 1997 
L 3341 0 
L 2766 0 
L 2766 531 
Q 2569 213 2275 61 
Q 1981 -91 1556 -91 
Q 1019 -91 701 211 
Q 384 513 384 1019 
Q 384 1609 779 1909 
Q 1175 2209 1959 2209 
L 2766 2209 
L 2766 2266 
Q 2766 2663 2505 2880 
Q 2244 3097 1772 3097 
Q 1472 3097 1187 3025 
Q 903 2953 641 2809 
L 641 3341 
Q 956 3463 1253 3523 
Q 1550 3584 1831 3584 
Q 2591 3584 2966 3190 
Q 3341 2797 3341 1997 
z
" transform="scale(0.015625)"/>
      <path id="DejaVuSans-6c" d="M 603 4863 
L 1178 4863 
L 1178 0 
L 603 0 
L 603 4863 
z
" transform="scale(0.015625)"/>
      <path id="DejaVuSans-65" d="M 3597 1894 
L 3597 1613 
L 953 1613 
Q 991 1019 1311 708 
Q 1631 397 2203 397 
Q 2534 397 2845 478 
Q 3156 559 3463 722 
L 3463 178 
Q 3153 47 2828 -22 
Q 2503 -91 2169 -91 
Q 1331 -91 842 396 
Q 353 884 353 1716 
Q 353 2575 817 3079 
Q 1281 3584 2069 3584 
Q 2775 3584 3186 3129 
Q 3597 2675 3597 1894 
z
M 3022 2063 
Q 3016 2534 2758 2815 
Q 2500 3097 2075 3097 
Q 1594 3097 1305 2825 
Q 1016 2553 972 2059 
L 3022 2063 
z
" transform="scale(0.015625)"/>
      <path id="DejaVuSans-20" transform="scale(0.015625)"/>
      <path id="DejaVuSans-54" d="M -19 4666 
L 3928 4666 
L 3928 4134 
L 2272 4134 
L 2272 0 
L 1638 0 
L 1638 4134 
L -19 4134 
L -19 4666 
z
" transform="scale(0.015625)"/>
      <path id="DejaVuSans-64" d="M 2906 2969 
L 2906 4863 
L 3481 4863 
L 3481 0 
L 2906 0 
L 2906 525 
Q 2725 213 2448 61 
Q 2172 -91 1784 -91 
Q 1150 -91 751 415 
Q 353 922 353 1747 
Q 353 2572 751 3078 
Q 1150 3584 1784 3584 
Q 2172 3584 2448 3432 
Q 2725 3281 2906 2969 
z
M 947 1747 
Q 947 1113 1208 752 
Q 1469 391 1925 391 
Q 2381 391 2643 752 
Q 2906 1113 2906 1747 
Q 2906 2381 2643 2742 
Q 2381 3103 1925 3103 
Q 1469 3103 1208 2742 
Q 947 2381 947 1747 
z
" transform="scale(0.015625)"/>
     </defs>
     <use xlink:href="#DejaVuSans-4e"/>
     <use xlink:href="#DejaVuSans-6f" x="74.804688"/>
     <use xlink:href="#DejaVuSans-6e" x="135.986328"/>
     <use xlink:href="#DejaVuSans-2d" x="199.365234"/>
     <use xlink:href="#DejaVuSans-50" x="235.449219"/>
     <use xlink:href="#DejaVuSans-61" x="291.251953"/>
     <use xlink:href="#DejaVuSans-72" x="352.53125"/>
     <use xlink:href="#DejaVuSans-61" x="393.644531"/>
     <use xlink:href="#DejaVuSans-6c" x="454.923828"/>
     <use xlink:href="#DejaVuSans-6c" x="482.707031"/>
     <use xlink:href="#DejaVuSans-65" x="510.490234"/>
     <use xlink:href="#DejaVuSans-6c" x="572.013672"/>
     <use xlink:href="#DejaVuSans-20" x="599.796875"/>
     <use xlink:href="#DejaVuSans-54" x="631.583984"/>
     <use xlink:href="#DejaVuSans-72" x="677.917969"/>
     <use xlink:href="#DejaVuSans-65" x="716.78125"/>
     <use xlink:href="#DejaVuSans-6e" x="778.304688"/>
     <use xlink:href="#DejaVuSans-64" x="841.683594"/>
     <use xlink:href="#DejaVuSans-73" x="905.160156"/>
    </g>
   </g>
   <g id="legend_1">
    <g id="patch_7">
     <path d="M 1327.245312 79.634375 
L 1422.2 79.634375 
Q 1424.2 79.634375 1424.2 77.634375 
L 1424.2 34.6 
Q 1424.2 32.6 1422.2 32.6 
L 1327.245312 32.6 
Q 1325.245312 32.6 1325.245312 34.6 
L 1325.245312 77.634375 
Q 1325.245312 79.634375 1327.245312 79.634375 
z
" style="fill: #e5e5e5; opacity: 0.8; stroke: #cccccc; stroke-width: 0.5; stroke-linejoin: miter"/>
    </g>
    <g id="line2d_43">
     <path d="M 1329.245312 40.698438 
L 1339.245312 40.698438 
L 1349.245312 40.698438 
" style="fill: none; stroke-dasharray: 11.1,4.8; stroke-dashoffset: 0; stroke: #348abd; stroke-width: 3"/>
    </g>
    <g id="text_17">
     <!-- Control Avg. -->
     <g transform="translate(1357.245312 44.198438) scale(0.1 -0.1)">
      <defs>
       <path id="DejaVuSans-43" d="M 4122 4306 
L 4122 3641 
Q 3803 3938 3442 4084 
Q 3081 4231 2675 4231 
Q 1875 4231 1450 3742 
Q 1025 3253 1025 2328 
Q 1025 1406 1450 917 
Q 1875 428 2675 428 
Q 3081 428 3442 575 
Q 3803 722 4122 1019 
L 4122 359 
Q 3791 134 3420 21 
Q 3050 -91 2638 -91 
Q 1578 -91 968 557 
Q 359 1206 359 2328 
Q 359 3453 968 4101 
Q 1578 4750 2638 4750 
Q 3056 4750 3426 4639 
Q 3797 4528 4122 4306 
z
" transform="scale(0.015625)"/>
       <path id="DejaVuSans-41" d="M 2188 4044 
L 1331 1722 
L 3047 1722 
L 2188 4044 
z
M 1831 4666 
L 2547 4666 
L 4325 0 
L 3669 0 
L 3244 1197 
L 1141 1197 
L 716 0 
L 50 0 
L 1831 4666 
z
" transform="scale(0.015625)"/>
       <path id="DejaVuSans-76" d="M 191 3500 
L 800 3500 
L 1894 563 
L 2988 3500 
L 3597 3500 
L 2284 0 
L 1503 0 
L 191 3500 
z
" transform="scale(0.015625)"/>
       <path id="DejaVuSans-67" d="M 2906 1791 
Q 2906 2416 2648 2759 
Q 2391 3103 1925 3103 
Q 1463 3103 1205 2759 
Q 947 2416 947 1791 
Q 947 1169 1205 825 
Q 1463 481 1925 481 
Q 2391 481 2648 825 
Q 2906 1169 2906 1791 
z
M 3481 434 
Q 3481 -459 3084 -895 
Q 2688 -1331 1869 -1331 
Q 1566 -1331 1297 -1286 
Q 1028 -1241 775 -1147 
L 775 -588 
Q 1028 -725 1275 -790 
Q 1522 -856 1778 -856 
Q 2344 -856 2625 -561 
Q 2906 -266 2906 331 
L 2906 616 
Q 2728 306 2450 153 
Q 2172 0 1784 0 
Q 1141 0 747 490 
Q 353 981 353 1791 
Q 353 2603 747 3093 
Q 1141 3584 1784 3584 
Q 2172 3584 2450 3431 
Q 2728 3278 2906 2969 
L 2906 3500 
L 3481 3500 
L 3481 434 
z
" transform="scale(0.015625)"/>
       <path id="DejaVuSans-2e" d="M 684 794 
L 1344 794 
L 1344 0 
L 684 0 
L 684 794 
z
" transform="scale(0.015625)"/>
      </defs>
      <use xlink:href="#DejaVuSans-43"/>
      <use xlink:href="#DejaVuSans-6f" x="69.824219"/>
      <use xlink:href="#DejaVuSans-6e" x="131.005859"/>
      <use xlink:href="#DejaVuSans-74" x="194.384766"/>
      <use xlink:href="#DejaVuSans-72" x="233.59375"/>
      <use xlink:href="#DejaVuSans-6f" x="272.457031"/>
      <use xlink:href="#DejaVuSans-6c" x="333.638672"/>
      <use xlink:href="#DejaVuSans-20" x="361.421875"/>
      <use xlink:href="#DejaVuSans-41" x="393.208984"/>
      <use xlink:href="#DejaVuSans-76" x="455.742188"/>
      <use xlink:href="#DejaVuSans-67" x="514.921875"/>
      <use xlink:href="#DejaVuSans-2e" x="578.398438"/>
     </g>
    </g>
    <g id="line2d_44">
     <path d="M 1329.245312 55.376563 
L 1339.245312 55.376563 
L 1349.245312 55.376563 
" style="fill: none; stroke: #e24a33; stroke-width: 1.5; stroke-linecap: square"/>
    </g>
    <g id="text_18">
     <!-- TX -->
     <g transform="translate(1357.245312 58.876563) scale(0.1 -0.1)">
      <defs>
       <path id="DejaVuSans-58" d="M 403 4666 
L 1081 4666 
L 2241 2931 
L 3406 4666 
L 4084 4666 
L 2584 2425 
L 4184 0 
L 3506 0 
L 2194 1984 
L 872 0 
L 191 0 
L 1856 2491 
L 403 4666 
z
" transform="scale(0.015625)"/>
      </defs>
      <use xlink:href="#DejaVuSans-54"/>
      <use xlink:href="#DejaVuSans-58" x="61.083984"/>
     </g>
    </g>
    <g id="line2d_45">
     <path d="M 1329.245312 70.054688 
L 1339.245312 70.054688 
L 1349.245312 70.054688 
" style="fill: none; stroke-dasharray: 2,3.3; stroke-dashoffset: 0; stroke: #000000; stroke-width: 2"/>
    </g>
    <g id="text_19">
     <!-- Senate Bill 8 -->
     <g transform="translate(1357.245312 73.554688) scale(0.1 -0.1)">
      <defs>
       <path id="DejaVuSans-53" d="M 3425 4513 
L 3425 3897 
Q 3066 4069 2747 4153 
Q 2428 4238 2131 4238 
Q 1616 4238 1336 4038 
Q 1056 3838 1056 3469 
Q 1056 3159 1242 3001 
Q 1428 2844 1947 2747 
L 2328 2669 
Q 3034 2534 3370 2195 
Q 3706 1856 3706 1288 
Q 3706 609 3251 259 
Q 2797 -91 1919 -91 
Q 1588 -91 1214 -16 
Q 841 59 441 206 
L 441 856 
Q 825 641 1194 531 
Q 1563 422 1919 422 
Q 2459 422 2753 634 
Q 3047 847 3047 1241 
Q 3047 1584 2836 1778 
Q 2625 1972 2144 2069 
L 1759 2144 
Q 1053 2284 737 2584 
Q 422 2884 422 3419 
Q 422 4038 858 4394 
Q 1294 4750 2059 4750 
Q 2388 4750 2728 4690 
Q 3069 4631 3425 4513 
z
" transform="scale(0.015625)"/>
      </defs>
      <use xlink:href="#DejaVuSans-53"/>
      <use xlink:href="#DejaVuSans-65" x="63.476562"/>
      <use xlink:href="#DejaVuSans-6e" x="125"/>
      <use xlink:href="#DejaVuSans-61" x="188.378906"/>
      <use xlink:href="#DejaVuSans-74" x="249.658203"/>
      <use xlink:href="#DejaVuSans-65" x="288.867188"/>
      <use xlink:href="#DejaVuSans-20" x="350.390625"/>
      <use xlink:href="#DejaVuSans-42" x="382.177734"/>
      <use xlink:href="#DejaVuSans-69" x="450.78125"/>
      <use xlink:href="#DejaVuSans-6c" x="478.564453"/>
      <use xlink:href="#DejaVuSans-6c" x="506.347656"/>
      <use xlink:href="#DejaVuSans-20" x="534.130859"/>
      <use xlink:href="#DejaVuSans-38" x="565.917969"/>
     </g>
    </g>
   </g>
  </g>
 </g>
 <defs>
  <clipPath id="pbf68ad61cb">
   <rect x="66.35" y="27.6" width="1362.85" height="278.070864"/>
  </clipPath>
 </defs>
</svg>
